<svg viewBox="0 0 600 400" xmlns="http://www.w3.org/2000/svg" fill="none"><rect width="600" height="400" rx="16" fill="#F0EDF5"/><rect x="200" y="60" width="200" height="280" rx="6" fill="#2A206A" opacity="0.12"/><rect x="215" y="80" width="76" height="40" rx="3" fill="#2A206A" opacity="0.08"/><rect x="309" y="80" width="76" height="40" rx="3" fill="#2A206A" opacity="0.08"/><rect x="215" y="130" width="76" height="40" rx="3" fill="#2A206A" opacity="0.08"/><rect x="309" y="130" width="76" height="40" rx="3" fill="#2A206A" opacity="0.08"/><rect x="215" y="180" width="76" height="40" rx="3" fill="#2A206A" opacity="0.08"/><rect x="309" y="180" width="76" height="40" rx="3" fill="#2A206A" opacity="0.08"/><rect x="215" y="230" width="76" height="40" rx="3" fill="#2A206A" opacity="0.08"/><rect x="309" y="230" width="76" height="40" rx="3" fill="#2A206A" opacity="0.08"/><rect x="265" y="300" width="70" height="40" rx="4" fill="#2A206A" opacity="0.2"/><rect x="140" y="340" width="320" height="8" rx="4" fill="#2A206A" opacity="0.08"/><rect x="296" y="30" width="8" height="30" rx="2" fill="#2A206A" opacity="0.15"/></svg>