<svg viewBox="0 0 600 400" xmlns="http://www.w3.org/2000/svg" fill="none"><rect width="600" height="400" rx="16" fill="#F0EDF5"/><path d="M180,340 L180,120 Q180,80 220,80 L380,80 Q420,80 420,120 L420,340" fill="#2A206A" opacity="0.12"/><rect x="190" y="100" width="220" height="3" rx="1" fill="#2A206A" opacity="0.15"/><rect x="190" y="140" width="220" height="3" rx="1" fill="#2A206A" opacity="0.15"/><rect x="190" y="180" width="220" height="3" rx="1" fill="#2A206A" opacity="0.15"/><rect x="190" y="220" width="220" height="3" rx="1" fill="#2A206A" opacity="0.15"/><rect x="190" y="260" width="220" height="3" rx="1" fill="#2A206A" opacity="0.15"/><rect x="270" y="290" width="60" height="50" rx="4" fill="#2A206A" opacity="0.2"/><rect x="240" y="285" width="120" height="6" rx="3" fill="#2A206A" opacity="0.15"/><rect x="130" y="340" width="340" height="8" rx="4" fill="#2A206A" opacity="0.08"/><circle cx="155" cy="310" r="20" fill="#2A206A" opacity="0.06"/><rect x="153" y="320" width="4" height="20" rx="1" fill="#2A206A" opacity="0.1"/><circle cx="445" cy="310" r="20" fill="#2A206A" opacity="0.06"/><rect x="443" y="320" width="4" height="20" rx="1" fill="#2A206A" opacity="0.1"/></svg>