<svg viewBox="0 0 600 400" xmlns="http://www.w3.org/2000/svg" fill="none"><rect width="600" height="400" rx="16" fill="#F0EDF5"/><rect x="140" y="130" width="320" height="200" rx="4" fill="#2A206A" opacity="0.12"/><rect x="260" y="60" width="80" height="70" rx="4" fill="#2A206A" opacity="0.15"/><circle cx="300" cy="90" r="18" fill="none" stroke="#2A206A" stroke-width="2.5" opacity="0.2"/><line x1="300" y1="90" x2="300" y2="78" stroke="#2A206A" stroke-width="2" opacity="0.2"/><line x1="300" y1="90" x2="310" y2="90" stroke="#2A206A" stroke-width="2" opacity="0.2"/><rect x="130" y="120" width="340" height="16" rx="3" fill="#2A206A" opacity="0.18"/><rect x="170" y="155" width="50" height="60" rx="3" fill="#2A206A" opacity="0.08"/><rect x="240" y="155" width="50" height="60" rx="3" fill="#2A206A" opacity="0.08"/><rect x="310" y="155" width="50" height="60" rx="3" fill="#2A206A" opacity="0.08"/><rect x="380" y="155" width="50" height="60" rx="3" fill="#2A206A" opacity="0.08"/><rect x="270" y="260" width="60" height="70" rx="30 30 3 3" fill="#2A206A" opacity="0.2"/><rect x="120" y="330" width="360" height="10" rx="2" fill="#2A206A" opacity="0.1"/></svg>