<?xml version="1.0" encoding="UTF-8"?>
<svg id="Layer_1" xmlns="http://www.w3.org/2000/svg" version="1.1" viewBox="0 0 1068 277">
  <!-- Generator: Adobe Illustrator 29.3.1, SVG Export Plug-In . SVG Version: 2.1.0 Build 151)  -->
  <defs>
    <style>
      .st0 {
        fill: #44439b;
      }

      .st1 {
        fill: #fff;
      }

      .st2 {
        fill: #1cc283;
      }
    </style>
  </defs>
  <path class="st0" d="M899.2,274c-9.8-1.5-19-3.8-27.7-6.8.1-1.5,0-8-4.3-14.8-4.9-7.6-12.7-13.4-12.7-13.5,0,0-2.9,7,1.5,15.2,3.2,5.9,9.8,10.4,13.2,12.3-7.8-2.9-15.1-6.3-22-10.2.4-1.5,1.6-7.9-1.2-15.1-3.2-8.2-9.5-15.2-9.5-15.2,0,0-4.1,6.4-1.4,15.1,1.9,6.3,7.3,11.7,10.2,14.1-7.3-4.3-14-9.2-20.2-14.6.7-1.4,3.1-7.4,1.9-15-1.4-8.6-6.2-16.5-6.2-16.5,0,0-5.2,5.6-4.3,14.5.6,6.5,4.7,12.7,7,15.5-5.7-5.1-10.9-10.6-15.6-16.5.9-1.2,4.3-6.8,4.5-14.4.2-8.6-3.2-17.2-3.2-17.2,0,0-6,4.6-6.8,13.5-.5,6.5,2.3,13.2,4.1,16.4-4.8-6.2-9.1-12.7-12.8-19.5,1.1-1.1,5.5-5.9,7-13.3,1.7-8.4-.2-17.4-.1-17.4,0,0-6.7,3.5-9,12.1-1.6,6.3,0,13.4,1.1,16.7-3.5-6.6-6.4-13.4-8.9-20.4,1.3-.8,6.4-4.9,9.1-11.9,3-8,2.6-17.1,2.7-17.2,0,0-7.2,2.3-10.8,10.4-2.6,5.9-2.2,13.1-1.6,16.6-2.5-7.6-4.4-15.3-5.7-23.1,1.4-.6,7.1-3.7,11-10.1,4.4-7.3,5.5-16.4,5.6-16.4,0,0-7.5,1-12.5,8.4-3.6,5.3-4.4,12.5-4.5,16.1-1.1-7.3-1.6-14.7-1.6-22.2,1.5-.4,7.6-2.4,12.5-8.1,5.5-6.5,8.2-15.3,8.2-15.3,0,0-7.6-.3-13.7,6.2-4.4,4.7-6.4,11.7-7,15.1.1-7.5.8-15.1,2-22.5,1.5-.1,7.9-1.1,13.7-5.9,6.5-5.5,10.7-13.8,10.7-13.8,0,0-7.4-1.5-14.6,3.8-5.2,3.9-8.3,10.5-9.5,13.8,1.4-7.3,3.3-14.6,5.8-21.7,1.5.1,8,.2,14.6-3.6,7.4-4.4,13.1-11.9,13.2-12,0,0-7.1-2.8-15.2,1.4-5.8,3-10.1,9.1-11.9,12.2,2.8-7.6,6.3-14.9,10.4-22,1.5.4,7.9,1.6,15.2-1.1,8.3-3.1,15.5-9.6,15.6-9.6,0,0-6.5-4-15.4-1.2-6.4,2-11.9,7.3-14.2,10.1,4-6.6,8.6-12.9,13.8-18.9,1.4.7,7.5,2.9,15.4,1.4,8.9-1.7,17.7-7.2,17.7-7.2,0,0-5.7-5.1-15.3-3.7-6.9,1-13.5,5.4-16.4,7.8,2.6-2.9,5.3-5.6,8.1-8.3,3.6-1.6,9.9-4.6,16.4-9.3,9.4-6.9,16.6-15.5,16.6-15.6.1,0-11.7,1-22,8.5-6.9,5-10.8,11.3-12.6,14.8-2.9,2.7-5.6,5.6-8.2,8.5,2.1-3.3,6.2-9.9,8.6-16.8C821.5,7,819,0,818.9,0c0,0-10.3,9.4-12.8,19.5-2.2,8.8,1.3,14.4,2.1,15.7-5.3,6.1-9.9,12.5-14,19.2,1.4-3.5,4.1-10.5,4.9-17.6,1.1-9.7-2.8-16.1-2.9-16.1,0,0-8,10.6-8.3,20.7-.4,8.8,4.1,13.7,5.1,14.8-4.2,7.2-7.7,14.7-10.6,22.4.6-3.6,1.9-10.9,1.3-17.8-.9-9.6-6-15.1-6.1-15,0,0-5.5,11.5-3.9,21.4,1.4,8.6,6.7,12.6,7.9,13.5-2.5,7.2-4.5,14.5-5.9,22,0-3.6,0-11-1.9-17.6-2.6-9.2-8.6-13.7-8.7-13.7,0,0-3.3,12.1,0,21.5,2.8,8.2,8.8,11.2,10.1,11.9-1.3,7.6-2,15.2-2.1,22.8-.6-3.6-1.8-10.8-4.8-16.9-4.1-8.6-10.8-11.9-10.9-11.9,0,0-1.1,12.4,3.7,21,4.2,7.6,10.5,9.5,11.9,10,0,7.5.6,15.1,1.7,22.5-1.2-3.4-3.5-10.3-7.5-15.9-5.5-7.7-12.6-9.9-12.7-9.9,0,0,1,12.3,7.1,20.1,5.3,6.7,11.9,7.6,13.4,7.8,1.3,8,3.2,15.8,5.8,23.5-1.7-3.2-5.3-9.5-10.1-14.3-6.7-6.7-14.1-7.6-14.2-7.5,0,0,3.1,12,10.4,18.5,6.4,5.7,13,5.4,14.5,5.4,2.5,7.1,5.5,14.1,9,20.7-2.2-2.9-6.7-8.6-12.3-12.5-7.7-5.5-15.1-5.1-15.2-5.1,0,0,4.9,11.3,13.3,16.6,7.2,4.6,13.7,3.2,15.2,2.9,3.8,6.9,8.1,13.6,13,19.8-2.7-2.4-8.2-7.3-14.4-10.3-8.5-4.1-15.8-2.5-15.8-2.4,0,0,6.8,10.4,16,14.1,8,3.3,14.2.8,15.5.3,4.8,5.9,10.1,11.6,15.8,16.7-3.2-2-9.5-5.9-16.1-7.8-9.2-2.7-16.1.2-16.1.2,0,0,8.5,9.2,18.3,11.3,8.5,2,14.2-1.5,15.5-2.3,6.3,5.5,13.1,10.4,20.5,14.8-3.6-1.4-10.8-4.1-17.8-4.9-9.7-1-16,3-16,3.1-.1,0,10.3,7.5,20.6,8,9,.4,14-4,15.1-5,7,4,14.4,7.5,22.3,10.4-4-.8-11.8-2.3-19.1-1.8-10,.6-15.6,5.6-15.6,5.7-.1,0,11.9,5.8,22.4,4.4,9.2-1.1,13.5-6.3,14.4-7.5,8.8,3.1,18.2,5.4,28.2,6.9,1.1.2,2-.2,2.1-.8,0-.6-.7-1.2-1.8-1.4"/>
  <path class="st0" d="M1054.6,174.4c7.4-6.5,10.5-18.5,10.4-18.5,0,0-7.5.8-14.2,7.5-4.8,4.8-8.4,11.2-10.1,14.3,2.5-7.7,4.5-15.5,5.8-23.5,1.5-.2,8.1-1.1,13.4-7.8,6.2-7.7,7.2-20.1,7.1-20.1,0,0-7.2,2.1-12.7,9.9-3.9,5.6-6.3,12.5-7.5,15.9,1.1-7.4,1.7-15,1.7-22.5,1.4-.4,7.8-2.4,11.9-10,4.8-8.6,3.8-21.1,3.7-21,0,0-6.8,3.3-10.9,11.9-3,6.2-4.2,13.4-4.8,16.9,0-7.6-.8-15.3-2.1-22.8,1.3-.7,7.3-3.7,10.1-11.9,3.3-9.4.1-21.6,0-21.5,0,0-6.1,4.4-8.7,13.7-1.9,6.6-1.9,14-1.9,17.6-1.4-7.4-3.3-14.8-5.9-22,1.2-.9,6.6-4.9,7.9-13.5,1.6-9.9-3.8-21.5-3.8-21.4,0,0-5.2,5.4-6.1,15-.6,6.9.6,14.2,1.3,17.8-2.8-7.7-6.4-15.2-10.6-22.4,1-1.1,5.5-6,5.1-14.8-.4-10.1-8.3-20.8-8.3-20.7,0,0-4,6.4-2.9,16.1.8,7,3.5,14.1,4.9,17.6-4-6.7-8.7-13.1-14-19.2.8-1.3,4.3-6.9,2.1-15.7C1013.5,9.4,1003.2,0,1003.1,0c0,0-2.6,7,.6,16.6,2.3,6.9,6.5,13.6,8.6,16.8-2.6-2.9-5.3-5.7-8.2-8.5-1.7-3.5-5.7-9.7-12.6-14.8-10.3-7.5-22.1-8.5-22-8.5,0,0,7.2,8.6,16.6,15.6,6.4,4.7,12.8,7.7,16.4,9.3,2.9,2.7,5.6,5.5,8.1,8.3-2.9-2.4-9.5-6.8-16.4-7.8-9.6-1.3-15.3,3.8-15.3,3.7,0,0,8.8,5.4,17.7,7.2,7.9,1.5,14-.8,15.4-1.4,5.2,6,9.8,12.3,13.8,18.9-2.4-2.8-7.8-8.1-14.2-10.1-8.9-2.8-15.4,1.3-15.4,1.2,0,0,7.3,6.6,15.6,9.6,7.3,2.7,13.7,1.5,15.2,1.1,4.2,7.1,7.6,14.5,10.4,22-1.8-3.1-6-9.2-11.8-12.2-8.1-4.2-15.2-1.4-15.2-1.4,0,0,5.7,7.5,13.2,12,6.6,3.8,13.1,3.8,14.6,3.6,2.5,7.1,4.4,14.3,5.8,21.7-1.2-3.3-4.3-9.9-9.5-13.8-7.2-5.4-14.6-3.8-14.6-3.8,0,0,4.2,8.3,10.8,13.8,5.8,4.8,12.2,5.8,13.7,5.9,1.3,7.4,1.9,15,2.1,22.5-.6-3.5-2.6-10.5-7-15.1-6.1-6.5-13.7-6.1-13.7-6.2,0,0,2.7,8.8,8.2,15.3,4.9,5.7,11,7.8,12.5,8.1,0,7.4-.6,14.8-1.7,22.2,0-3.5-.9-10.8-4.4-16.1-5-7.4-12.5-8.3-12.5-8.4,0,0,1.2,9.1,5.6,16.4,3.9,6.4,9.6,9.5,11,10.1-1.3,7.8-3.2,15.6-5.7,23.1.6-3.5,1-10.8-1.6-16.6-3.6-8.1-10.9-10.4-10.8-10.4,0,0-.4,9.1,2.7,17.2,2.7,7,7.8,11.1,9.1,11.9-2.4,7-5.4,13.8-8.8,20.4,1.1-3.4,2.7-10.5,1.1-16.7-2.2-8.6-9-12.1-9-12.1,0,0-1.8,9-.1,17.4,1.5,7.4,5.9,12.2,7,13.3-3.7,6.8-8,13.4-12.8,19.5,1.7-3.1,4.6-9.9,4.1-16.4-.7-8.9-6.8-13.5-6.8-13.5,0,0-3.4,8.6-3.2,17.2.2,7.6,3.6,13.1,4.5,14.4-4.7,5.9-9.9,11.4-15.6,16.5,2.3-2.8,6.3-9.1,7-15.6.9-9-4.4-14.5-4.3-14.5,0,0-4.8,7.9-6.2,16.5-1.2,7.6,1.2,13.6,1.9,15-6.2,5.4-12.9,10.3-20.2,14.6,2.9-2.4,8.3-7.8,10.2-14.1,2.7-8.7-1.5-15.1-1.4-15.1,0,0-6.3,7-9.5,15.2-2.7,7.3-1.6,13.7-1.2,15.1-6.9,3.9-14.2,7.4-22,10.2,3.5-1.9,10-6.4,13.2-12.3,4.4-8.2,1.4-15.2,1.5-15.2,0,0-7.7,5.9-12.7,13.5-4.3,6.7-4.5,13.2-4.3,14.8-8.7,3-17.9,5.3-27.7,6.8-1.1.2-1.8.8-1.8,1.4,0,.6,1,1,2.1.8,9.9-1.5,19.3-3.9,28.2-6.9.9,1.2,5.2,6.4,14.4,7.5,10.6,1.3,22.6-4.4,22.4-4.4,0,0-5.5-5.1-15.6-5.7-7.2-.5-15.1,1.1-19.1,1.8,7.9-2.9,15.3-6.4,22.3-10.4,1.1,1,6.2,5.4,15.1,5,10.3-.4,20.7-7.9,20.6-8,0,0-6.3-4.1-16-3.1-7,.7-14.2,3.5-17.8,4.9,7.4-4.4,14.2-9.4,20.5-14.8,1.3.8,7,4.3,15.5,2.3,9.8-2.2,18.4-11.3,18.3-11.3,0,0-6.9-2.9-16.1-.2-6.6,1.9-13,5.8-16.1,7.8,5.8-5.2,11-10.8,15.8-16.7,1.4.6,7.6,3,15.5-.3,9.2-3.7,16.1-14.1,16-14.1,0,0-7.3-1.7-15.8,2.4-6.2,3-11.6,7.8-14.4,10.3,4.9-6.3,9.2-12.9,13-19.8,1.4.3,7.9,1.7,15.2-2.9,8.3-5.2,13.4-16.6,13.3-16.6,0,0-7.5-.4-15.2,5.1-5.6,4-10.1,9.7-12.3,12.5,3.5-6.7,6.5-13.6,9-20.7,1.5,0,8.1.3,14.5-5.4Z"/>
  <path class="st2" d="M870.8,78h7.6l2.5-7.9h13l2.5,7.9h8.4l-11.6-35.8h-10.5l-11.8,35.8ZM887.3,48.8l4.7,15.5h-9.5l4.8-15.5ZM909.6,78h8v-13h4.5c8.2,0,13.4-3.6,13.4-11.2v-.2c0-7.6-5-11.4-13.7-11.4h-12.3v35.8ZM917.6,59.3v-10.9h4.1c3.9,0,6,1.5,6,5.3v.2c0,3.5-2.1,5.4-6,5.4h-4.1ZM941.1,78h8.2v-35.8h-8.2v35.8ZM822.8,113h7.6l2.5-7.9h13l2.5,7.9h8.5l-11.6-35.8h-10.5l-11.8,35.8ZM839.4,83.8l4.7,15.5h-9.5l4.8-15.5ZM864.4,113h7.2l4.8-16.4,4.4,16.4h7.1l8.2-26.2h-7l-5,17.6-4.6-17.6h-6l-5,17.6-4.7-17.6h-7.6l8,26.2ZM906.4,113.6c4.1,0,6.4-1.6,7.9-3.7v3.2h7v-17.1c0-7.1-4.5-9.7-11-9.7s-11.3,2.8-11.8,8.9h6.9c.3-2.2,1.6-3.7,4.4-3.7s4.2,1.7,4.2,4.8v1h-2.9c-8,0-13.6,2.3-13.6,8.4s4,7.8,8.8,7.8ZM908.5,108.5c-2.7,0-3.8-1.2-3.8-3.2,0-2.8,2.4-3.7,6.6-3.7h2.8v2.2c0,2.9-2.4,4.7-5.6,4.7ZM927.6,113h7.2v-13.1c0-5,3.1-6.8,8.5-6.7v-6.8c-4.2,0-6.8,1.9-8.5,5.4v-5h-7.2v26.2ZM957.3,113.6c3.8,0,7-2.2,8.4-4.9v4.3h7.2v-38h-7.2v15.8c-1.5-2.7-4-4.5-8.2-4.5-6.5,0-11.5,5.1-11.5,13.7v.4c0,8.7,5,13.2,11.4,13.2ZM959.4,107.9c-3.6,0-6.1-2.6-6.1-7.8v-.4c0-5.2,2.2-7.9,6.3-7.9s6.2,2.6,6.2,7.8v.4c0,5.3-2.7,7.8-6.5,7.8ZM988.8,113.6c6.9,0,11-3,11-8.6s-3.6-7.2-10.1-8.2c-3.8-.6-5-1.2-5-2.8s1.3-2.7,3.7-2.7,3.7,1,4.1,3.2h6.6c-.6-6-5-8.1-10.8-8.1s-10.3,2.7-10.3,8.2,2.7,7.1,9.6,8.2c3.8.5,5.3,1.3,5.3,3.1s-1.3,2.8-4.1,2.8-4.3-1.3-4.6-3.7h-6.8c.2,5.6,4.3,8.8,11.4,8.8Z"/>
  <path class="st1" d="M811,144h4.9c2.9,0,4.7-1.3,4.7-4h0c0-1.9-.8-3-2.9-3.5,1.6-.6,2.2-1.7,2.2-3h0c0-2.9-1.9-3.8-4.6-3.8h-4.3v14.3ZM812.7,135.9v-4.9h2.6c2,0,2.9.7,2.9,2.3h0c0,1.8-.8,2.6-2.9,2.6h-2.6ZM812.7,142.6v-5.3h2.9c2.3,0,3.3.8,3.3,2.6h0c0,1.8-1,2.7-3,2.7h-3.2ZM827.6,144.2c2.4,0,4.1-1.1,4.5-3.2h-1.7c-.2,1.2-1.2,1.8-2.8,1.8s-3.3-1.3-3.4-3.7h7.9v-.5c0-3.7-2.3-5.2-4.7-5.2s-4.9,2.2-4.9,5.4v.2c0,3.2,2.1,5.3,5.1,5.3ZM824.3,137.8c.3-1.9,1.4-3,3.1-3s2.8.9,3,3h-6.1ZM838,144.2c2.5,0,3.8-1.3,3.8-3.2s-1.5-2.7-3.7-3.1c-1.9-.3-2.4-.7-2.4-1.7s.8-1.5,2-1.5,2,.5,2.2,1.6h1.6c-.3-2.3-1.9-3-3.8-3s-3.5,1-3.5,2.9.9,2.6,3.6,3.1c1.6.3,2.4.7,2.4,1.8s-.7,1.7-2.3,1.7-2.3-.8-2.5-2h-1.6c0,2.1,1.6,3.4,4.1,3.4ZM847.5,144.1c.7,0,1.1-.1,1.4-.2v-1.4c-.4.1-.8.2-1.3.2-.8,0-1.3-.5-1.3-1.5v-6.3h2.4v-1.4h-2.4v-2.4h-1.7v2.4h-1.5v1.4h1.5v6.4c0,1.6.9,2.8,2.8,2.8ZM857.6,131.4c.6,0,1.1-.5,1.1-1.1s-.5-1.1-1.1-1.1-1.1.5-1.1,1.1.5,1.1,1.1,1.1ZM856.8,144h1.7v-10.5h-1.7v10.5ZM861.9,144h1.7v-6.3c0-1.9,1.4-2.9,2.9-2.9s2.5.8,2.5,2.7v6.5h1.7v-6.4c0-3-1.5-4.2-3.7-4.2s-2.9.9-3.4,1.8v-1.7h-1.7v10.5ZM879.2,144h1.7v-5.8h2.3c2.7,0,5-1.2,5-4.2h0c0-3.1-2.3-4.3-5-4.3h-4.1v14.3ZM881,136.8v-5.7h2.4c1.9,0,3.1.8,3.1,2.8h0c0,1.9-1.1,2.9-3.1,2.9h-2.4ZM893.3,144.2c1.5,0,2.5-.5,3.3-1.5v1.3h1.7v-6.9c0-2.9-1.8-3.7-3.8-3.7s-3.9.9-4.1,3.3h1.7c.2-1.3,1-1.9,2.4-1.9s2.2.7,2.2,2.4v.8h-1.5c-2.7,0-5.2.8-5.2,3.2s1.5,3.1,3.5,3.1ZM893.4,142.9c-1.5,0-2-.7-2-1.8,0-1.5,1.5-2.1,3.6-2.1h1.4v1.3c0,1.6-1.3,2.5-3.1,2.5ZM902.1,147.6h1.7l5.8-14.1h-1.7l-2.9,7.5-3.2-7.5h-1.8l4.1,9.4-2,4.7ZM911.7,144h1.7v-6.4c0-1.9,1.4-2.8,2.8-2.8s2.2.8,2.2,2.6v6.6h1.7v-6.4c0-1.9,1.4-2.8,2.8-2.8s2.2.8,2.2,2.6v6.6h1.7v-6.5c0-3-1.6-4.2-3.5-4.2s-2.9.6-3.6,2c-.5-1.4-1.7-2-3.1-2s-2.6.8-3.1,1.8v-1.6h-1.7v10.5ZM934.2,144.2c2.4,0,4.1-1.1,4.5-3.2h-1.7c-.2,1.2-1.2,1.8-2.8,1.8s-3.3-1.3-3.4-3.7h7.9v-.5c0-3.7-2.3-5.2-4.7-5.2s-4.9,2.2-4.9,5.4v.2c0,3.2,2.1,5.3,5.1,5.3ZM930.9,137.8c.3-1.9,1.4-3,3.1-3s2.8.9,3,3h-6.1ZM941.3,144h1.7v-6.3c0-1.9,1.4-2.9,2.9-2.9s2.5.8,2.5,2.7v6.5h1.7v-6.4c0-3-1.5-4.2-3.7-4.2s-2.9.9-3.4,1.8v-1.7h-1.7v10.5ZM956.4,144.1c.7,0,1.1-.1,1.4-.2v-1.4c-.4.1-.8.2-1.3.2-.8,0-1.3-.5-1.3-1.5v-6.3h2.4v-1.4h-2.4v-2.4h-1.7v2.4h-1.5v1.4h1.5v6.4c0,1.6.9,2.8,2.8,2.8ZM963.6,144.2c2.5,0,3.8-1.3,3.8-3.2s-1.5-2.7-3.7-3.1c-1.9-.3-2.4-.7-2.4-1.7s.8-1.5,2-1.5,2,.5,2.2,1.6h1.6c-.3-2.3-1.9-3-3.8-3s-3.5,1-3.5,2.9.9,2.6,3.6,3.1c1.6.3,2.4.7,2.4,1.8s-.7,1.7-2.3,1.7-2.3-.8-2.5-2h-1.6c.1,2.1,1.6,3.4,4.1,3.4ZM974.3,144h1.6l1.4-4.1h5.9l1.4,4.1h1.7l-4.8-14.3h-2.3l-4.9,14.3ZM980.3,131.1l2.5,7.4h-5l2.5-7.4ZM988.9,144h1.7v-5.8h2.3c2.7,0,5-1.2,5-4.2h0c0-3.1-2.3-4.3-5-4.3h-4.1v14.3ZM990.6,136.8v-5.7h2.4c1.9,0,3.1.8,3.1,2.8h0c0,1.9-1.1,2.9-3.1,2.9h-2.4ZM1000.6,144h1.7v-14.3h-1.7v14.3ZM1009.1,144.2c2.5,0,3.8-1.3,3.8-3.2s-1.5-2.7-3.7-3.1c-1.9-.3-2.4-.7-2.4-1.7s.8-1.5,2-1.5,2,.5,2.2,1.6h1.6c-.3-2.3-1.9-3-3.8-3s-3.5,1-3.5,2.9.9,2.6,3.6,3.1c1.6.3,2.4.7,2.4,1.8s-.7,1.7-2.3,1.7-2.3-.8-2.5-2h-1.6c.1,2.1,1.6,3.4,4.1,3.4Z"/>
  <path class="st2" d="M864.4,195.2h10.6v-2h-10.6v2ZM878.5,201h12.4v-2.5h-7.3l3.8-3.7c2-2,3.4-3.9,3.4-6.1s-2.1-5.1-5.7-5.1-5.9,2.2-6.1,5.9h2.9c.3-2.4,1.4-3.4,3.1-3.4s2.6,1,2.6,2.6-1,3.1-2.6,4.9l-6.5,6.8v.6ZM902.7,201.2c4.5,0,7.2-3.3,7.2-8.4v-.9c0-5.2-2.8-8.3-7.2-8.3s-7.2,3.2-7.2,8.4v.9c0,5.2,2.8,8.4,7.2,8.4ZM902.8,198.7c-2.6,0-4.1-2-4.1-5.9v-.9c0-3.8,1.4-5.9,4-5.9s4,2.2,4,5.9v.8c0,3.9-1.3,5.9-3.9,5.9ZM913.9,201h12.4v-2.5h-7.3l3.8-3.7c2-2,3.4-3.9,3.4-6.1s-2.1-5.1-5.7-5.1-5.9,2.2-6.1,5.9h2.9c.3-2.4,1.4-3.4,3.1-3.4s2.6,1,2.6,2.6-1,3.1-2.6,4.9l-6.5,6.8v.6ZM930.2,201h12.4v-2.5h-7.3l3.8-3.7c2-2,3.4-3.9,3.4-6.1s-2.1-5.1-5.7-5.1-5.9,2.2-6.1,5.9h2.9c.3-2.4,1.4-3.4,3.1-3.4s2.6,1,2.6,2.6-1,3.1-2.6,4.9l-6.5,6.8v.6ZM947,195.2h10.6v-2h-10.6v2Z"/>
  <g>
    <path class="st0" d="M536.2,274c-9.8-1.5-19-3.8-27.7-6.8.1-1.5,0-8-4.3-14.8-4.9-7.6-12.7-13.4-12.7-13.5,0,0-2.9,7,1.5,15.2,3.2,5.9,9.8,10.4,13.2,12.3-7.8-2.9-15.1-6.3-22-10.2.4-1.5,1.6-7.9-1.2-15.1-3.2-8.2-9.5-15.2-9.5-15.2,0,0-4.1,6.4-1.4,15.1,1.9,6.3,7.3,11.7,10.2,14.1-7.3-4.3-14-9.2-20.2-14.6.7-1.4,3.1-7.4,1.9-15-1.4-8.6-6.2-16.5-6.2-16.5,0,0-5.2,5.6-4.3,14.5.6,6.5,4.7,12.7,7,15.5-5.7-5.1-10.9-10.6-15.6-16.5.9-1.2,4.3-6.8,4.5-14.4.2-8.6-3.2-17.2-3.2-17.2,0,0-6,4.6-6.8,13.5-.5,6.5,2.3,13.2,4.1,16.4-4.8-6.2-9.1-12.7-12.8-19.5,1.1-1.1,5.5-5.9,7-13.3,1.7-8.4-.2-17.4-.1-17.4,0,0-6.7,3.5-9,12.1-1.6,6.3,0,13.4,1.1,16.7-3.5-6.6-6.4-13.4-8.9-20.4,1.3-.8,6.4-4.9,9.1-11.9,3-8,2.6-17.1,2.7-17.2,0,0-7.2,2.3-10.8,10.4-2.6,5.9-2.2,13.1-1.6,16.6-2.5-7.6-4.4-15.3-5.7-23.1,1.4-.6,7.1-3.7,11-10.1,4.4-7.3,5.5-16.4,5.6-16.4,0,0-7.5,1-12.5,8.4-3.6,5.3-4.4,12.5-4.5,16.1-1.1-7.3-1.6-14.7-1.6-22.2,1.5-.4,7.6-2.4,12.5-8.1,5.5-6.5,8.2-15.3,8.2-15.3,0,0-7.6-.3-13.7,6.2-4.4,4.7-6.4,11.7-7,15.1.1-7.5.8-15.1,2-22.5,1.5-.1,7.9-1.1,13.7-5.9,6.5-5.5,10.7-13.8,10.7-13.8,0,0-7.4-1.5-14.6,3.8-5.2,3.9-8.3,10.5-9.5,13.8,1.4-7.3,3.3-14.6,5.8-21.7,1.5.1,8,.2,14.6-3.6,7.4-4.4,13.1-11.9,13.2-12,0,0-7.1-2.8-15.2,1.4-5.8,3-10.1,9.1-11.9,12.2,2.8-7.6,6.3-14.9,10.4-22,1.5.4,7.9,1.6,15.2-1.1,8.3-3.1,15.5-9.6,15.6-9.6,0,0-6.5-4-15.4-1.2-6.4,2-11.9,7.3-14.2,10.1,4-6.6,8.6-12.9,13.8-18.9,1.4.7,7.5,2.9,15.4,1.4,8.9-1.7,17.7-7.2,17.7-7.2,0,0-5.7-5.1-15.3-3.7-6.9,1-13.5,5.4-16.4,7.8,2.6-2.9,5.3-5.6,8.1-8.3,3.6-1.6,9.9-4.6,16.4-9.3,9.4-6.9,16.6-15.5,16.6-15.6.1,0-11.7,1-22,8.5-6.9,5-10.8,11.3-12.6,14.8-2.9,2.7-5.6,5.6-8.2,8.5,2.1-3.3,6.2-9.9,8.6-16.8C458.5,7,456,0,455.9,0c0,0-10.3,9.4-12.8,19.5-2.2,8.8,1.3,14.4,2.1,15.7-5.3,6.1-9.9,12.5-14,19.2,1.4-3.5,4.1-10.5,4.9-17.6,1.1-9.7-2.8-16.1-2.9-16.1,0,0-8,10.6-8.3,20.7-.4,8.8,4.1,13.7,5.1,14.8-4.2,7.2-7.7,14.7-10.6,22.4.6-3.6,1.9-10.9,1.3-17.8-.9-9.6-6-15.1-6.1-15,0,0-5.5,11.5-3.9,21.4,1.4,8.6,6.7,12.6,7.9,13.5-2.5,7.2-4.5,14.5-5.9,22,0-3.6,0-11-1.9-17.6-2.6-9.2-8.6-13.7-8.7-13.7,0,0-3.3,12.1,0,21.5,2.8,8.2,8.8,11.2,10.1,11.9-1.3,7.6-2,15.2-2.1,22.8-.6-3.6-1.8-10.8-4.8-16.9-4.1-8.6-10.8-11.9-10.9-11.9,0,0-1.1,12.4,3.7,21,4.2,7.6,10.5,9.5,11.9,10,0,7.5.6,15.1,1.7,22.5-1.2-3.4-3.5-10.3-7.5-15.9-5.5-7.7-12.6-9.9-12.7-9.9,0,0,1,12.3,7.1,20.1,5.3,6.7,11.9,7.6,13.4,7.8,1.3,8,3.2,15.8,5.8,23.5-1.7-3.2-5.3-9.5-10.1-14.3-6.7-6.7-14.1-7.6-14.2-7.5,0,0,3.1,12,10.4,18.5,6.4,5.7,13,5.4,14.5,5.4,2.5,7.1,5.5,14.1,9,20.7-2.2-2.9-6.7-8.6-12.3-12.5-7.7-5.5-15.1-5.1-15.2-5.1,0,0,4.9,11.3,13.3,16.6,7.2,4.6,13.7,3.2,15.2,2.9,3.8,6.9,8.1,13.6,13,19.8-2.7-2.4-8.2-7.3-14.4-10.3-8.5-4.1-15.8-2.5-15.8-2.4,0,0,6.8,10.4,16,14.1,8,3.3,14.2.8,15.5.3,4.8,5.9,10.1,11.6,15.8,16.7-3.2-2-9.5-5.9-16.1-7.8-9.2-2.7-16.1.2-16.1.2,0,0,8.5,9.2,18.3,11.3,8.5,2,14.2-1.5,15.5-2.3,6.3,5.5,13.1,10.4,20.5,14.8-3.6-1.4-10.8-4.1-17.7-4.9-9.7-1-16,3-16,3.1-.1,0,10.3,7.5,20.6,8,9,.4,14-4,15.1-5,7,4,14.4,7.5,22.3,10.4-4-.8-11.8-2.3-19.1-1.8-10,.6-15.6,5.6-15.6,5.7-.1,0,11.9,5.8,22.4,4.4,9.2-1.1,13.5-6.3,14.4-7.5,8.8,3.1,18.2,5.4,28.2,6.9,1.1.2,2-.2,2.1-.8,0-.6-.7-1.2-1.8-1.4"/>
    <path class="st0" d="M691.6,174.4c7.4-6.5,10.5-18.5,10.4-18.5,0,0-7.5.8-14.2,7.5-4.8,4.8-8.4,11.2-10.1,14.3,2.5-7.7,4.5-15.5,5.8-23.5,1.5-.2,8.1-1.1,13.4-7.8,6.2-7.7,7.2-20.1,7.1-20.1,0,0-7.2,2.1-12.7,9.9-4,5.6-6.3,12.5-7.5,15.9,1.1-7.4,1.7-15,1.7-22.5,1.4-.4,7.8-2.4,11.9-10,4.8-8.6,3.8-21.1,3.7-21,0,0-6.8,3.3-10.9,11.9-3,6.2-4.2,13.4-4.8,16.9-.1-7.6-.8-15.3-2.1-22.8,1.3-.7,7.3-3.7,10.1-11.9,3.3-9.4.1-21.6,0-21.5,0,0-6.1,4.4-8.7,13.7-1.9,6.6-1.9,14-1.9,17.6-1.4-7.4-3.3-14.8-5.9-22,1.2-.9,6.6-4.9,7.9-13.5,1.6-9.9-3.8-21.5-3.9-21.4,0,0-5.2,5.4-6.1,15-.6,6.9.6,14.2,1.3,17.8-2.8-7.7-6.4-15.2-10.6-22.4,1-1.1,5.5-6,5.1-14.8-.4-10.1-8.3-20.8-8.3-20.7,0,0-4,6.4-2.9,16.1.8,7,3.5,14.1,4.9,17.6-4.1-6.7-8.7-13.1-14-19.2.8-1.3,4.3-6.9,2.1-15.7C650.5,9.4,640.1,0,640.1,0c0,0-2.6,7,.6,16.6,2.3,6.9,6.5,13.6,8.6,16.8-2.6-2.9-5.4-5.7-8.2-8.5-1.7-3.5-5.7-9.7-12.6-14.8-10.3-7.5-22.1-8.5-22-8.5,0,0,7.2,8.6,16.6,15.6,6.4,4.7,12.8,7.7,16.4,9.3,2.9,2.7,5.6,5.5,8.1,8.3-2.9-2.4-9.5-6.8-16.4-7.8-9.6-1.3-15.3,3.8-15.3,3.7,0,0,8.8,5.4,17.7,7.2,7.9,1.5,14-.8,15.4-1.4,5.2,6,9.8,12.3,13.8,18.9-2.4-2.8-7.8-8.1-14.2-10.1-8.9-2.8-15.4,1.3-15.4,1.2,0,0,7.3,6.6,15.6,9.6,7.3,2.7,13.7,1.5,15.2,1.1,4.2,7.1,7.6,14.5,10.4,22-1.8-3.1-6-9.2-11.9-12.2-8.1-4.2-15.2-1.4-15.2-1.4,0,0,5.7,7.5,13.2,12,6.6,3.8,13.1,3.8,14.6,3.6,2.5,7.1,4.4,14.3,5.8,21.7-1.2-3.3-4.3-9.9-9.5-13.8-7.2-5.4-14.6-3.8-14.6-3.8,0,0,4.2,8.3,10.7,13.8,5.8,4.8,12.2,5.8,13.7,5.9,1.3,7.4,1.9,15,2,22.5-.6-3.5-2.6-10.5-7-15.1-6.1-6.5-13.7-6.1-13.7-6.2,0,0,2.7,8.8,8.2,15.3,4.9,5.7,11,7.8,12.5,8.1,0,7.4-.6,14.8-1.6,22.2,0-3.5-.9-10.8-4.4-16.1-5-7.4-12.5-8.3-12.5-8.4,0,0,1.2,9.1,5.6,16.4,3.9,6.4,9.6,9.5,11,10.1-1.3,7.8-3.2,15.6-5.7,23.1.6-3.5,1-10.8-1.6-16.6-3.6-8.1-10.9-10.4-10.8-10.4,0,0-.4,9.1,2.7,17.2,2.7,7,7.8,11.1,9.1,11.9-2.4,7-5.4,13.8-8.9,20.4,1.1-3.4,2.7-10.5,1.1-16.7-2.2-8.6-9-12.1-9-12.1,0,0-1.8,9-.1,17.4,1.5,7.4,5.9,12.2,7,13.3-3.7,6.8-8,13.4-12.8,19.5,1.7-3.1,4.6-9.9,4.1-16.4-.7-8.9-6.8-13.5-6.8-13.5,0,0-3.3,8.6-3.2,17.2.2,7.6,3.6,13.1,4.5,14.4-4.7,5.9-9.9,11.4-15.6,16.5,2.3-2.8,6.4-9.1,7-15.6.9-9-4.4-14.5-4.3-14.5,0,0-4.8,7.9-6.2,16.5-1.2,7.6,1.2,13.6,1.9,15-6.2,5.4-12.9,10.3-20.2,14.6,2.9-2.4,8.3-7.8,10.2-14.1,2.7-8.7-1.5-15.1-1.4-15.1,0,0-6.3,7-9.5,15.2-2.7,7.3-1.6,13.7-1.2,15.1-6.9,3.9-14.2,7.4-22,10.2,3.5-1.9,10-6.4,13.2-12.3,4.4-8.2,1.4-15.2,1.5-15.2,0,0-7.7,5.9-12.7,13.5-4.3,6.7-4.5,13.2-4.3,14.8-8.7,3-17.9,5.3-27.7,6.8-1.1.2-1.8.8-1.8,1.4,0,.6,1,1,2.1.8,9.9-1.5,19.3-3.9,28.2-6.9.9,1.2,5.2,6.4,14.4,7.5,10.6,1.3,22.6-4.4,22.4-4.4,0,0-5.5-5.1-15.6-5.7-7.2-.5-15.1,1.1-19.1,1.8,7.9-2.9,15.3-6.4,22.3-10.4,1.1,1,6.2,5.4,15.1,5,10.3-.4,20.7-7.9,20.6-8,0,0-6.3-4.1-16-3.1-7,.7-14.2,3.5-17.8,4.9,7.4-4.4,14.2-9.4,20.5-14.8,1.3.8,7,4.3,15.5,2.3,9.8-2.2,18.4-11.3,18.3-11.3,0,0-6.9-2.9-16.1-.2-6.6,1.9-13,5.8-16.1,7.8,5.8-5.2,11-10.8,15.8-16.7,1.4.6,7.6,3,15.5-.3,9.2-3.7,16.1-14.1,16-14.1,0,0-7.3-1.7-15.8,2.4-6.2,3-11.6,7.8-14.4,10.3,4.9-6.3,9.2-12.9,13-19.8,1.4.3,7.9,1.7,15.2-2.9,8.4-5.2,13.4-16.6,13.3-16.6,0,0-7.5-.4-15.2,5.1-5.6,4-10.1,9.7-12.3,12.5,3.5-6.7,6.5-13.6,9-20.7,1.5,0,8.1.3,14.5-5.4Z"/>
    <path class="st2" d="M495.6,110.6c-11.7,0-17.9-7.2-17.9-18.2v-.4c0-10.8,7.6-18.2,17.7-18.2s15,4.2,15.8,13h-8.3c-.6-4.3-3-6.6-7.5-6.6s-9.2,4.4-9.2,11.8v.4c0,7.4,3.4,11.7,9.3,11.7s7.5-2.2,8.2-6.8h8c-.9,8.8-7.2,13.4-16.1,13.4ZM516.9,110v-35.8h9.4l13.6,23.6v-23.6h7.2v35.8h-8.1l-14.9-25.4v25.4h-7.2ZM554.8,110v-35.8h14.1c7.8,0,11.8,3.2,11.8,9.3v.2c0,3.8-1.8,6.5-5.8,7.7,4.6.9,7.1,3.6,7.1,8.4v.2c0,6.6-4.3,10-12.6,10h-14.7ZM562.7,88.9h4.9c3.9,0,5.4-1.4,5.4-4.6v-.2c0-3-1.7-4.3-5.5-4.3h-4.8v9.1ZM562.7,104.4h5.6c4,0,5.8-1.8,5.8-5.1v-.2c0-3.3-1.8-5-6.2-5h-5.2v10.2ZM603.9,110.6c-11.7,0-17.9-7.2-17.9-18.2v-.4c0-10.8,7.6-18.2,17.8-18.2s15,4.2,15.8,13h-8.3c-.6-4.3-3-6.6-7.5-6.6s-9.2,4.4-9.2,11.8v.4c0,7.4,3.4,11.7,9.3,11.7s7.6-2.2,8.2-6.8h8c-.9,8.8-7.2,13.4-16.1,13.4Z"/>
    <path class="st1" d="M456.9,139l-3.7-14.3h1.8l2.9,11.5,3.4-11.5h1.2l3.4,11.6,2.9-11.6h1.6l-3.7,14.3h-1.6l-3.2-11.3-3.3,11.3h-1.6ZM476.3,139.2c-3,0-5.1-2.3-5.1-5.3v-.2c0-3.1,2.2-5.3,5.1-5.3s5.1,2.2,5.1,5.3v.2c0,3.2-2.2,5.3-5.2,5.3ZM476.3,137.8c2.1,0,3.4-1.6,3.4-3.9h0c0-2.6-1.3-4.1-3.4-4.1s-3.4,1.6-3.4,4v.2c0,2.4,1.3,3.9,3.4,3.9ZM484,139v-10.5h1.7v1.9c.7-1.2,1.6-2,3.4-2.1v1.6c-2.1,0-3.4.8-3.4,3.3v5.7h-1.7ZM491.5,139v-15.5h1.7v15.5h-1.7ZM500.6,139.2c-2.7,0-4.7-1.9-4.7-5.2v-.2c0-3.2,2-5.5,4.9-5.5s2.8.8,3.4,1.9v-6.7h1.7v15.5h-1.7v-1.8c-.6,1-2.1,2-3.6,2ZM500.7,137.8c1.9,0,3.5-1.3,3.5-4v-.2c0-2.7-1.3-3.9-3.3-3.9s-3.3,1.5-3.3,4v.2c0,2.6,1.4,3.9,3.2,3.9ZM509.4,129.2l-1-.5,1.8-4.2,1.6.7-2.3,4ZM515.7,139.2c-2.5,0-4-1.3-4.1-3.4h1.6c.1,1.2.8,2,2.5,2s2.3-.5,2.3-1.7-.8-1.5-2.4-1.8c-2.7-.5-3.6-1.3-3.6-3.1s1.9-2.9,3.5-2.9,3.5.8,3.8,3h-1.6c-.2-1.1-.9-1.6-2.2-1.6s-2,.6-2,1.5.5,1.3,2.4,1.7c2.2.4,3.7.9,3.7,3.1s-1.3,3.2-3.8,3.2ZM530.4,139v-12.9h-4.2v-1.4h10.1v1.4h-4.2v12.9h-1.7ZM541.4,139.2c-3,0-5.1-2.3-5.1-5.3v-.2c0-3.1,2.2-5.3,5.1-5.3s5.1,2.2,5.1,5.3v.2c0,3.2-2.2,5.3-5.2,5.3ZM541.4,137.8c2.1,0,3.4-1.6,3.4-3.9h0c0-2.6-1.3-4.1-3.4-4.1s-3.4,1.6-3.4,4v.2c0,2.4,1.3,3.9,3.4,3.9ZM549.1,142.6v-14.1h1.7v1.8c.6-1,2-1.9,3.5-1.9,2.7,0,4.8,2,4.8,5.3v.2c0,3.2-1.9,5.4-4.8,5.4s-2.9-.9-3.5-1.9v5.4h-1.7ZM554.2,137.8c2.1,0,3.2-1.4,3.2-3.9v-.2c0-2.6-1.5-4-3.2-4s-3.4,1.3-3.4,4v.2c0,2.7,1.4,3.9,3.4,3.9ZM567.1,139v-14.3h8.4v1.4h-6.6v5.1h5.2v1.4h-5.2v6.4h-1.7ZM578.5,126.4c-.6,0-1.1-.5-1.1-1.1s.5-1.1,1.1-1.1,1.1.5,1.1,1.1-.5,1.1-1.1,1.1ZM577.7,139v-10.5h1.7v10.5h-1.7ZM582.8,139v-10.5h1.7v1.7c.5-1,1.6-1.8,3.4-1.8s3.7,1.2,3.7,4.2v6.4h-1.7v-6.5c0-1.8-.8-2.7-2.5-2.7s-2.9,1-2.9,2.9v6.3h-1.7ZM597.9,139.1c-1.9,0-2.8-1.1-2.8-2.8v-6.4h-1.5v-1.4h1.5v-2.4h1.7v2.4h2.4v1.4h-2.4v6.3c0,1,.5,1.5,1.3,1.5s.9,0,1.3-.2v1.4c-.3.1-.7.2-1.4.2ZM606.1,139.2c-3,0-5.1-2.1-5.1-5.3v-.2c0-3.2,2-5.4,4.9-5.4s4.7,1.5,4.7,5.2v.5h-7.9c0,2.4,1.2,3.7,3.4,3.7s2.6-.6,2.8-1.8h1.7c-.4,2.1-2.1,3.2-4.5,3.2ZM602.9,132.8h6.1c-.2-2.2-1.3-3-3-3s-2.8,1.2-3.1,3ZM617.6,139.2c-2.9,0-5.1-2.1-5.1-5.3v-.2c0-3.2,2.3-5.4,5.1-5.4s4.2,1,4.5,3.7h-1.6c-.3-1.7-1.5-2.3-2.9-2.3s-3.4,1.5-3.4,4v.2c0,2.6,1.4,3.9,3.4,3.9s2.8-.9,3-2.6h1.5c-.2,2.3-2,3.9-4.6,3.9ZM624.6,139v-15.5h1.7v6.7c.5-1,1.6-1.8,3.4-1.8s3.7,1.2,3.7,4.2v6.4h-1.7v-6.5c0-1.8-.8-2.7-2.5-2.7s-2.9,1-2.9,2.9v6.3h-1.7ZM639.8,139.2c-2.5,0-4-1.3-4.1-3.4h1.6c.1,1.2.8,2,2.5,2s2.3-.5,2.3-1.7-.8-1.5-2.4-1.8c-2.7-.5-3.6-1.3-3.6-3.1s1.9-2.9,3.5-2.9,3.5.8,3.8,3h-1.6c-.2-1.1-.9-1.6-2.2-1.6s-2,.6-2,1.5.5,1.3,2.4,1.7c2.2.4,3.7.9,3.7,3.1s-1.3,3.2-3.8,3.2Z"/>
    <path class="st2" d="M501.3,195.2v-2h10.6v2h-10.6ZM515.4,201v-.6l6.5-6.8c1.6-1.7,2.6-3.2,2.6-4.9s-.9-2.6-2.6-2.6-2.8,1-3.1,3.4h-2.9c.2-3.7,2.5-5.9,6.1-5.9s5.7,2,5.7,5.1-1.3,4.2-3.4,6.1l-3.8,3.7h7.3v2.5h-12.4ZM539.6,201.2c-4.4,0-7.2-3.2-7.2-8.4v-.9c0-5.2,2.9-8.4,7.2-8.4s7.2,3.2,7.2,8.3v.9c0,5.2-2.7,8.4-7.2,8.4ZM539.7,198.7c2.6,0,3.9-2,3.9-5.9v-.8c0-3.6-1.4-5.9-4-5.9s-4,2.1-4,5.9v.9c0,3.9,1.5,5.9,4.1,5.9ZM550.8,201v-.6l6.5-6.8c1.6-1.7,2.6-3.2,2.6-4.9s-.9-2.6-2.6-2.6-2.8,1-3.1,3.4h-2.9c.2-3.7,2.5-5.9,6.1-5.9s5.7,2,5.7,5.1-1.3,4.2-3.4,6.1l-3.8,3.7h7.3v2.5h-12.4ZM574,201.2c-4.1,0-6.3-2.3-6.5-5.5h2.9c.2,1.8,1.2,3.1,3.5,3.1s3.3-1.1,3.3-2.8-1-2.8-3.1-2.8h-1.3v-2.3h1.2c2,0,2.9-.9,2.9-2.5s-.9-2.4-2.7-2.4-3,1.1-3.2,2.8h-2.8c.2-3,2.4-5.3,6.1-5.3s5.7,2.1,5.7,4.6-1.1,3.1-2.8,3.7c2,.5,3.3,1.9,3.3,4.2s-2.5,5.1-6.4,5.1ZM585.1,195.2v-2h10.6v2h-10.6Z"/>
  </g>
</svg>